# xmcd
# 
# Track frame offsets:
#     187
#     29470
#     62095
#     99567
#     131147
#     151220
# 
# Disc length: 2725
# 
# Revision: 1
# Processed by: cddbd v1.5.2PL0 Copyright (c) Steve Scherf et al.
# Submitted via: BonkEnc v1.0.8
# 
DISCID=4b0aa306
DTITLE=Joe Farrell - Sonic Text
DYEAR=1979
DGENRE=Jazz
TTITLE0=Sonic Text
TTITLE1=When You're Awake
TTITLE2=The Jazz Crunch
TTITLE3=If I Knew You're At
TTITLE4=Sweet Rita Suite (Part 1) - Her Sprit
TTITLE5=Malibu
EXTD=YEAR: 1979
EXTT0=
EXTT1=
EXTT2=
EXTT3=
EXTT4=
EXTT5=
PLAYORDER=
